<?xml version="1.0" encoding="UTF-8" standalone="no"?>
<!-- Generator: Gravit.io -->
<svg xmlns="http://www.w3.org/2000/svg" xmlns:xlink="http://www.w3.org/1999/xlink" style="isolation:isolate" viewBox="0 0 1000 1000" width="1000pt" height="1000pt"><defs><clipPath id="_clipPath_ONeeZd4dujNSzmUupv5CE8R64LUE9BqV"><rect width="1000" height="1000"/></clipPath></defs><g clip-path="url(#_clipPath_ONeeZd4dujNSzmUupv5CE8R64LUE9BqV)"><rect width="1000" height="1000" style="fill:rgb(0,0,0)" fill-opacity="0"/><g><path d=" M 489.315 575.068 L 225.342 338.071 C 222.394 335.424 220 330.058 220 326.095 L 220 297.377 C 220 293.415 223.135 289.474 226.996 288.583 L 320.697 266.96 C 324.558 266.069 327.692 268.563 327.692 272.525 L 327.692 331.61 L 406.851 313.338 C 410.712 312.446 413.846 308.506 413.846 304.543 L 413.846 252.643 C 413.846 248.681 416.981 244.741 420.842 243.85 L 493.004 227.197 C 496.865 226.306 503.135 226.306 506.996 227.197 L 579.158 243.85 C 583.019 244.741 586.154 248.681 586.154 252.643 L 586.154 304.543 C 586.154 308.506 589.288 312.446 593.149 313.338 L 672.308 331.61 L 672.308 272.525 C 672.308 268.563 675.442 266.069 679.303 266.96 L 773.004 288.583 C 776.865 289.474 780 293.415 780 297.377 L 780 326.095 C 780 330.058 777.606 335.424 774.658 338.071 L 510.685 575.068 C 504.788 580.362 495.212 580.362 489.315 575.068 Z " fill="rgb(219,45,84)"/><path d=" M 780 429.762 L 780 470.138 C 780 474.101 777.725 479.593 774.923 482.394 L 742 515.318 C 739.198 518.12 736.923 523.612 736.923 527.574 L 736.923 649.625 C 736.922 672.529 730.827 692.394 719.048 710.431 L 599.991 591.373 L 780 429.762 Z " fill="rgb(219,45,84)"/><path d=" M 220 429.762 L 220 462.959 C 220 470.884 224.55 481.867 230.153 487.471 L 252.924 510.241 C 258.527 515.845 263.077 526.829 263.077 534.754 L 263.077 649.625 C 263.078 672.529 269.173 692.394 280.952 710.431 L 400.009 591.373 L 220 429.762 Z " fill="rgb(219,45,84)"/><path d=" M 667.232 760.147 C 627.163 787.649 570.672 813.211 500 843.472 Q 500 843.472 500 843.472 C 429.328 813.211 372.837 787.649 332.768 760.147 L 454.622 638.293 C 459.461 641.204 464.582 643.644 469.918 645.569 C 479.567 649.058 489.741 650.839 500 650.832 C 510.259 650.839 520.433 649.058 530.082 645.569 C 535.418 643.644 540.539 641.204 545.378 638.293 L 667.232 760.147 Z " fill="rgb(219,45,84)"/></g></g></svg>